G75*
%MOIN*%
%OFA0B0*%
%FSLAX24Y24*%
%IPPOS*%
%LPD*%
%AMOC8*
5,1,8,0,0,1.08239X$1,22.5*
%
%ADD10R,0.0394X0.0433*%
%ADD11R,0.0210X0.0480*%
%ADD12C,0.0740*%
%ADD13R,0.0866X0.0236*%
%ADD14R,0.0433X0.0394*%
%ADD15C,0.0080*%
D10*
X002305Y001830D03*
X002975Y001830D03*
X003805Y001830D03*
X004475Y001830D03*
X005305Y002830D03*
X005975Y002830D03*
X008805Y001830D03*
X009475Y001830D03*
X009140Y003995D03*
X009140Y004665D03*
X003040Y004665D03*
X003040Y003995D03*
X002975Y002830D03*
X002305Y002830D03*
X002740Y005495D03*
X002740Y006165D03*
D11*
X001490Y006160D03*
X000790Y006160D03*
X000790Y004500D03*
X001490Y004500D03*
D12*
X000640Y000830D03*
X000640Y001830D03*
X000640Y002830D03*
D13*
X004616Y004580D03*
X004616Y005080D03*
X004616Y005580D03*
X004616Y006080D03*
X006664Y006080D03*
X006664Y005580D03*
X006664Y005080D03*
X006664Y004580D03*
D14*
X008140Y004665D03*
X008140Y003995D03*
X007975Y001830D03*
X007305Y001830D03*
X005975Y001830D03*
X005305Y001830D03*
X004475Y002830D03*
X003805Y002830D03*
D15*
X003890Y002830D01*
X003890Y001830D01*
X003805Y001830D01*
X004140Y001580D02*
X004890Y000830D01*
X005890Y000830D01*
X008390Y000830D01*
X009140Y001580D01*
X009140Y003995D01*
X009140Y004080D01*
X008140Y004080D01*
X008140Y003995D01*
X008140Y004580D02*
X008140Y004665D01*
X008140Y004830D01*
X007890Y005080D01*
X006664Y005080D01*
X007140Y004830D02*
X006140Y004830D01*
X005140Y005830D01*
X003390Y005830D01*
X003390Y005580D01*
X004140Y004830D01*
X005140Y004830D01*
X005390Y004580D01*
X004640Y003830D01*
X003140Y003830D01*
X003040Y003995D01*
X003140Y004580D02*
X003040Y004665D01*
X002890Y004580D01*
X002140Y003830D01*
X001890Y003830D01*
X001140Y003080D01*
X001140Y002580D01*
X000890Y002330D01*
X000390Y002330D01*
X000140Y002080D01*
X000140Y001330D01*
X000640Y000830D01*
X002140Y000830D01*
X002390Y001080D01*
X002390Y001830D01*
X002305Y001830D01*
X002640Y002080D02*
X002640Y001330D01*
X003140Y000830D01*
X004390Y000830D01*
X004890Y000330D01*
X008890Y000330D01*
X010390Y001830D01*
X010390Y004330D01*
X009140Y005580D01*
X008390Y005580D01*
X007890Y006080D01*
X006664Y006080D01*
X005640Y006080D01*
X005140Y006580D01*
X003640Y006580D01*
X003140Y007080D01*
X002390Y007080D01*
X001640Y006330D01*
X001390Y006330D01*
X001490Y006160D01*
X001390Y006330D02*
X001390Y006830D01*
X001140Y007080D01*
X000140Y006080D01*
X000140Y005580D01*
X000890Y004830D01*
X000890Y004580D01*
X000790Y004500D01*
X000890Y004330D01*
X000890Y003080D01*
X000640Y002830D01*
X001640Y002580D02*
X001640Y003330D01*
X001890Y003580D01*
X005640Y003580D01*
X005890Y003330D01*
X005890Y004330D01*
X005140Y005080D01*
X004616Y005080D01*
X004616Y004580D02*
X003140Y004580D01*
X003040Y004665D02*
X002890Y004830D01*
X002640Y005080D01*
X002640Y005330D01*
X002740Y005495D01*
X002390Y006080D02*
X002140Y005830D01*
X002140Y004580D01*
X001640Y004080D01*
X001390Y004080D01*
X001140Y004330D01*
X001140Y004830D01*
X000890Y005080D01*
X000890Y006080D01*
X000790Y006160D01*
X001390Y005330D02*
X001390Y004580D01*
X001490Y004500D01*
X001390Y005330D02*
X002140Y006080D01*
X002140Y006580D01*
X002390Y006830D01*
X003140Y006830D01*
X003390Y006580D01*
X003390Y005830D01*
X002890Y006330D02*
X002740Y006165D01*
X002890Y006330D02*
X002640Y006580D01*
X002390Y006330D01*
X002390Y006080D01*
X004616Y006080D02*
X005390Y006080D01*
X005890Y005580D01*
X006664Y005580D01*
X008140Y005580D01*
X008390Y005330D01*
X009140Y005330D01*
X010140Y004330D01*
X010140Y001830D01*
X008890Y000580D01*
X004890Y000580D01*
X004390Y001080D01*
X003140Y001080D01*
X002890Y001330D01*
X002890Y001830D01*
X002975Y001830D01*
X002890Y001830D02*
X002890Y002830D01*
X002975Y002830D01*
X002390Y002830D02*
X002305Y002830D01*
X002390Y002830D02*
X002390Y002330D01*
X002640Y002080D01*
X001640Y002580D02*
X000890Y001830D01*
X000640Y001830D01*
X004140Y001580D02*
X004140Y002580D01*
X004390Y002830D01*
X004475Y002830D01*
X005305Y002830D02*
X005390Y002830D01*
X005390Y001830D01*
X005305Y001830D01*
X004475Y001830D01*
X005390Y001830D02*
X005890Y001330D01*
X006140Y001330D01*
X006390Y001580D01*
X006390Y003080D01*
X006140Y003330D01*
X006140Y004330D01*
X004890Y005580D01*
X004616Y005580D01*
X006664Y004580D02*
X006890Y004580D01*
X006890Y003830D01*
X006640Y003580D01*
X006640Y001580D01*
X005890Y000830D01*
X005890Y001830D02*
X005975Y001830D01*
X005890Y001830D02*
X005890Y002830D01*
X005975Y002830D01*
X005890Y002830D02*
X005890Y003330D01*
X006890Y003580D02*
X007140Y003830D01*
X007140Y004330D01*
X007390Y004580D01*
X007140Y004830D01*
X008140Y004580D02*
X009140Y004580D01*
X009140Y004665D01*
X009140Y004580D02*
X009640Y004580D01*
X009890Y004330D01*
X009890Y003580D01*
X009390Y003080D01*
X009390Y001830D01*
X009475Y001830D01*
X008805Y001830D02*
X007975Y001830D01*
X007305Y001830D02*
X007140Y001830D01*
X006890Y002080D01*
X006890Y003580D01*
M02*
